HIERARCHY
ROOT Hips
{
	OFFSET 1.431511 101.407013 -0.591700
	CHANNELS 6 Xposition Yposition Zposition Xrotation Yrotation Zrotation
	JOINT Chest
	{
		OFFSET -2.449219 13.411095 0.546019
		CHANNELS 3 Xrotation Yrotation Zrotation
		JOINT Chest2
		{
			OFFSET -11.499411 18.013222 1.534242
			CHANNELS 3 Xrotation Yrotation Zrotation
			JOINT Chest3
			{
				OFFSET -4.764867 14.073013 -1.437441
				CHANNELS 3 Xrotation Yrotation Zrotation
				JOINT Neck
				{
					OFFSET -3.976904 16.816650 -0.018080
					CHANNELS 3 Xrotation Yrotation Zrotation
					JOINT Head
					{
						OFFSET 0.052221 10.453461 0.741764
						CHANNELS 3 Xrotation Yrotation Zrotation
						End Site
						{
							OFFSET 0.045593 10.458389 0.669143
						}
					}
				}
				JOINT LeftCollar
				{
					OFFSET 0.910744 13.842529 3.059296
					CHANNELS 3 Xrotation Yrotation Zrotation
					JOINT LeftUpArm
					{
						OFFSET 16.295595 0.175354 -6.551508
						CHANNELS 3 Xrotation Yrotation Zrotation
						JOINT LeftLowArm
						{
							OFFSET 23.550266 -23.230164 6.743386
							CHANNELS 3 Xrotation Yrotation Zrotation
							JOINT LeftHand
							{
								OFFSET 18.812885 -14.073776 18.680239
								CHANNELS 3 Xrotation Yrotation Zrotation
								End Site
								{
									OFFSET 4.111664 -3.075912 4.082674
								}
							}
						}
					}
				}
				JOINT RightCollar
				{
					OFFSET -7.271305 11.907333 2.674375
					CHANNELS 3 Xrotation Yrotation Zrotation
					JOINT RightUpArm
					{
						OFFSET -15.300756 3.057770 -8.064312
						CHANNELS 3 Xrotation Yrotation Zrotation
						JOINT RightLowArm
						{
							OFFSET -23.448933 22.856430 8.213711
							CHANNELS 3 Xrotation Yrotation Zrotation
							JOINT RightHand
							{
								OFFSET -15.790359 25.144440 4.401770
								CHANNELS 3 Xrotation Yrotation Zrotation
								End Site
								{
									OFFSET -3.451149 5.495575 0.962047
								}
							}
						}
					}
				}
			}
		}
	}
	JOINT LeftUpLeg
	{
		OFFSET 9.464050 1.611198 2.873140
		CHANNELS 3 Xrotation Yrotation Zrotation
		JOINT LeftLowLeg
		{
			OFFSET -3.414579 -45.139431 13.955734
			CHANNELS 3 Xrotation Yrotation Zrotation
			JOINT LeftFoot
			{
				OFFSET -2.279036 -37.836067 -23.744619
				CHANNELS 3 Xrotation Yrotation Zrotation
				JOINT LeftToe
				{
					OFFSET -0.948038 -15.137873 18.152292
					CHANNELS 3 Xrotation Yrotation Zrotation
					End Site
					{
						OFFSET 0.928219 -0.282982 23.635086
					}
				}
			}
		}
	}
	JOINT RightUpLeg
	{
		OFFSET -9.464018 -1.611389 -2.873150
		CHANNELS 3 Xrotation Yrotation Zrotation
		JOINT RightLowLeg
		{
			OFFSET -38.946129 -24.223686 11.850056
			CHANNELS 3 Xrotation Yrotation Zrotation
			JOINT RightFoot
			{
				OFFSET -5.110252 -42.204506 -13.901255
				CHANNELS 3 Xrotation Yrotation Zrotation
				JOINT RightToe
				{
					OFFSET -8.796219 -20.612444 7.570364
					CHANNELS 3 Xrotation Yrotation Zrotation
					End Site
					{
						OFFSET -16.119122 -8.577180 15.038685
					}
				}
			}
		}
	}
}
MOTION
Frames: 17
Frame Time: 0.033333
5.632463 88.514000 -2.280973 6.118982 -5.814390 3.301175 1.577347 -0.817005 12.996314 -1.953181 -3.946169 3.955629 -2.140271 10.148660 -0.428670 -17.085655 -1.584246 1.602724 -0.000000 -0.000001 0.000001 -1.690221 2.605358 8.719907 4.709040 14.922630 16.322801 -37.187549 -38.881740 -96.931381 0.000003 -0.000004 0.000002 -1.256625 -5.130337 5.825074 -2.351259 -4.980729 -6.847906 -7.780344 -2.121153 -20.543367 -0.000000 -0.000001 -0.000004 -18.067297 -1.583401 -4.922893 20.217995 -4.864923 -7.539637 -7.333702 16.827751 9.347808 -0.000000 0.000000 -0.000000 -6.677533 2.360066 -15.629153 -2.098187 2.040820 10.731843 6.323235 -4.930709 -0.000241 0.000000 -0.000001 0.000002 
5.697357 88.422768 -2.336686 5.583274 -5.070522 3.209873 0.989191 -1.157929 13.268984 -1.260906 -3.545592 4.039007 -2.134377 9.197184 -0.668910 -17.267172 -1.726336 1.737885 0.000001 -0.000000 0.000001 -2.061654 3.344727 8.664992 4.664450 14.437954 16.427894 -37.615672 -38.871409 -96.880530 0.000003 0.000003 0.000002 -1.349356 -5.466588 5.988103 -2.005336 -4.598180 -7.121558 -8.579892 -2.387083 -21.250373 0.000000 0.000000 -0.000004 -17.336618 -1.578807 -5.363945 20.188776 -4.926288 -6.682341 -6.974551 16.375208 9.014825 -0.000000 0.000000 0.000002 -5.239317 1.417084 -15.844587 -2.634367 2.237027 10.819821 6.222101 -4.684433 -0.117368 0.000004 -0.000003 0.000001 
5.761150 88.331772 -2.385133 5.447479 -4.451795 3.150854 0.806607 -1.250321 13.438506 -1.059378 -3.403268 4.056906 -2.076145 8.382236 -0.828612 -16.938558 -1.639753 1.694170 -0.000001 0.000001 -0.000001 -2.273283 3.529189 8.751483 4.847010 15.022444 16.424356 -38.105509 -38.865259 -97.354067 -0.000003 0.000002 -0.000003 -1.212628 -4.963920 5.918521 -2.150350 -4.960506 -7.029907 -8.225780 -1.998997 -22.615574 0.000000 -0.000001 -0.000003 -17.251043 -1.603932 -5.672459 20.594537 -5.025907 -6.152755 -6.716936 16.009007 8.748774 -0.000000 -0.000000 0.000001 -4.542793 0.963138 -16.146089 -2.887328 2.348728 11.111651 6.026292 -4.555253 -0.021013 0.000002 0.000005 0.000000 
5.822516 88.244827 -2.432551 6.013123 -4.408462 3.111047 0.509795 -1.401157 13.535896 -1.412088 -3.654514 4.052836 -1.925445 9.060008 -0.832643 -17.405704 -2.059691 1.919745 0.000000 -0.000000 -0.000002 -2.133081 3.223086 8.698801 4.741723 14.964651 16.427688 -37.230685 -38.864886 -97.355843 -0.000003 0.000001 0.000001 -1.496945 -5.726452 5.846966 -1.656705 -4.014067 -6.804444 -7.985675 -1.610701 -23.684487 -0.000000 0.000000 -0.000004 -18.073823 -1.582365 -5.609661 20.754911 -5.031449 -6.251733 -6.755453 15.894934 8.692408 -0.000000 0.000000 0.000002 -4.953584 1.213529 -16.203975 -2.999325 2.316201 11.207739 5.921688 -4.669566 0.051912 0.000001 0.000005 0.000001 
5.880466 88.163231 -2.477633 6.124173 -4.302825 3.126392 0.581736 -1.374922 13.547186 -1.405935 -3.672621 3.911289 -2.276624 9.774458 -0.701314 -16.581952 -2.426867 2.029837 -0.000001 0.000000 0.000000 -1.508096 1.345898 8.624360 4.298458 16.492731 16.456038 -35.994120 -38.508405 -98.311195 0.000003 -0.000000 0.000003 -2.322068 -6.793384 5.645863 -2.077724 -2.849177 -6.339981 -6.910116 -0.179387 -24.575861 -0.000001 -0.000001 -0.000003 -18.419688 -1.507687 -5.638035 21.146585 -4.970505 -6.228384 -7.054545 15.623323 8.624849 -0.000000 0.000001 0.000002 -4.826134 0.997933 -16.362729 -3.227578 2.252569 11.331506 5.868070 -4.572074 0.091063 0.000001 -0.000003 0.000001 
5.935300 88.090187 -2.523046 6.081931 -4.459398 3.218770 0.757204 -1.261220 13.298514 -1.057515 -3.620041 4.069600 -2.776085 9.827781 -0.708796 -16.194479 -2.752920 2.090717 -0.000000 -0.000001 0.000000 -0.937694 0.145975 8.529814 4.210354 17.974872 16.528235 -35.000027 -38.259127 -99.384717 0.000003 0.000000 -0.000000 -2.627035 -6.947575 5.708843 -1.720658 -1.435889 -6.261919 -6.561514 0.564128 -25.329857 -0.000000 0.000001 -0.000004 -18.368283 -1.446443 -5.604571 21.160945 -4.896236 -6.518908 -7.158471 15.466868 8.584624 -0.000001 0.000000 0.000001 -4.826925 0.936926 -16.377530 -3.208863 2.124376 11.209621 6.196350 -4.480098 -0.241890 0.000002 -0.000002 -0.000002 
5.991811 88.026993 -2.568797 5.453799 -5.036072 3.417636 2.085840 -0.585453 12.922716 -1.648951 -4.032566 4.084755 -2.952219 9.276562 -0.584131 -15.464545 -2.521247 2.037444 0.000001 0.000001 0.000000 -1.570405 1.625751 8.583573 4.337555 17.003679 16.627909 -35.642564 -38.565017 -99.530152 -0.000000 0.000001 0.000003 -1.972589 -5.601836 5.772387 -1.435716 -1.790577 -6.225940 -7.009986 -0.038012 -25.899814 0.000001 -0.000000 -0.000001 -17.547190 -1.393729 -5.595545 21.002178 -4.806124 -7.064073 -6.587320 15.970123 8.694330 -0.000001 0.000001 0.000001 -5.000969 1.070942 -16.270264 -2.646665 1.897415 10.804508 6.583033 -4.363372 -0.512615 0.000002 0.000001 0.000002 
6.041900 87.973167 -2.614895 4.861905 -5.218553 3.322230 2.480165 -0.381871 12.829109 -1.599334 -4.019658 4.160926 -3.030153 8.763771 -0.507296 -14.142689 -2.295531 1.904371 0.000001 -0.000000 -0.000002 -1.866705 2.289276 8.631815 4.379209 16.300439 16.525902 -34.892008 -38.845051 -99.939027 0.000001 0.000000 -0.000004 -1.422374 -4.244618 5.732516 -1.760773 -2.865583 -6.041771 -6.234917 0.105038 -26.570761 0.000001 0.000000 -0.000001 -16.515175 -1.310185 -5.477967 20.573643 -4.615317 -7.018831 -6.970862 15.875836 8.933193 -0.000001 0.000001 0.000001 -5.179512 1.196956 -15.972343 -1.780196 1.488914 10.458772 7.036962 -3.357677 -1.299390 0.000001 0.000003 -0.000001 
6.089024 87.930084 -2.651677 5.838175 -5.634100 3.356392 1.704484 -0.750216 12.777239 -1.814777 -3.958436 3.960937 -2.945238 9.716188 -0.114863 -14.831604 -2.339154 1.901144 -0.000001 -0.000000 0.000001 -1.868521 2.600411 8.535796 4.407733 15.196017 16.574190 -35.609451 -39.011107 -99.779099 -0.000003 0.000000 -0.000003 -1.284523 -4.444066 5.924719 -1.639882 -3.323684 -6.262504 -7.447788 -0.812296 -26.584432 -0.000000 0.000001 0.000001 -17.144053 -1.373451 -5.187195 20.220345 -4.522801 -7.577893 -7.074331 16.317486 9.228623 -0.000001 0.000000 0.000002 -5.677767 1.576837 -15.985141 -1.986676 1.547142 10.545258 7.126507 -2.954762 -1.614993 0.000001 0.000005 -0.000000 
6.133891 87.889969 -2.691055 5.955981 -5.061627 3.248617 1.000643 -1.083877 12.720502 -1.307147 -3.619158 3.963224 -2.978476 9.592552 -0.054780 -14.937718 -2.527791 1.986303 -0.000001 0.000001 -0.000001 -1.959301 2.588524 8.440428 4.183721 15.462321 16.899961 -34.953479 -38.851701 -100.972230 -0.000003 0.000002 0.000002 -1.289767 -3.994426 5.997054 -2.114631 -3.733010 -6.320740 -8.000185 -0.712285 -26.669327 -0.000000 0.000001 -0.000004 -17.191304 -1.391645 -5.360298 20.067731 -4.517187 -7.077389 -7.355563 16.027749 9.248401 -0.000000 0.000000 -0.000001 -5.089215 1.178780 -16.048298 -2.729385 1.789739 10.760886 6.803990 -3.178447 -1.420963 0.000004 0.000003 0.000004 
6.176064 87.856377 -2.726461 5.821766 -4.691858 3.227967 0.513751 -1.308621 12.588004 -1.142063 -3.508874 4.011584 -2.753170 9.569737 -0.045683 -15.166473 -2.757549 2.191658 0.000000 -0.000000 0.000003 -1.896811 2.753682 8.351121 4.335938 15.322440 17.155388 -35.257211 -38.983069 -101.476749 -0.000000 -0.000002 -0.000004 -1.048402 -3.689097 6.145302 -2.121607 -4.249444 -6.403162 -8.735159 -1.219782 -26.833489 -0.000001 0.000000 -0.000003 -17.103658 -1.411287 -5.569411 20.240250 -4.568669 -6.710752 -7.598062 15.766375 9.081527 -0.000001 -0.000001 0.000001 -4.829572 1.024625 -16.139512 -2.469634 1.693010 10.765291 6.795864 -3.080817 -1.475869 -0.000000 0.000001 0.000001 
6.211628 87.820045 -2.760554 6.246514 -4.700724 3.146680 0.471120 -1.356863 12.583525 -1.408428 -3.661132 3.953324 -2.502311 9.786254 -0.069048 -15.301562 -2.789159 2.301193 0.000000 -0.000001 0.000003 -1.873278 2.937665 8.390613 4.534501 15.407599 17.327633 -36.879733 -38.942621 -101.228287 -0.000001 -0.000000 -0.000001 -0.998885 -3.853853 6.240209 -1.996934 -4.534362 -6.513128 -8.796758 -1.420546 -26.849914 -0.000001 0.000001 -0.000003 -17.257323 -1.427358 -5.507564 19.826663 -4.546163 -6.642088 -7.753826 15.839241 9.068579 -0.000000 -0.000000 -0.000000 -4.645280 0.914647 -16.243225 -3.408072 2.068915 11.132599 6.349209 -3.728427 -0.942497 0.000002 0.000003 0.000002 
6.249718 87.785652 -2.789004 6.262261 -4.779964 3.033794 0.464068 -1.361619 12.641909 -1.530142 -3.858876 4.089276 -2.102957 9.636871 -0.275843 -15.801255 -2.725139 2.283531 -0.000000 0.000000 -0.000001 -2.012178 2.999134 8.410783 4.563687 15.547450 17.364764 -37.252863 -38.879595 -100.596761 0.000001 -0.000000 0.000001 -1.102324 -3.876035 6.101881 -1.839862 -4.256357 -6.386619 -9.124614 -1.570537 -26.812466 -0.000000 0.000000 -0.000001 -16.751908 -1.437696 -5.547406 19.712228 -4.565728 -6.418760 -7.752466 15.730371 9.007564 -0.000000 0.000000 -0.000000 -5.106253 1.239090 -16.055150 -2.813779 1.898300 11.104310 6.360195 -3.362237 -1.084344 -0.000001 0.000001 -0.000001 
6.285096 87.759117 -2.815789 6.446030 -4.890557 3.051984 0.500790 -1.316062 12.549849 -1.276212 -3.662762 4.024126 -2.546540 9.901406 -0.137754 -15.612732 -2.902312 2.414524 -0.000001 -0.000000 0.000002 -1.988892 2.899405 8.371841 4.429233 15.579460 17.465864 -36.708920 -38.816235 -100.868801 0.000002 0.000001 0.000001 -1.442612 -4.675888 6.034563 -1.967125 -4.228343 -6.429987 -8.635195 -1.148373 -26.879870 0.000001 0.000001 -0.000003 -17.129384 -1.474285 -5.451699 19.638225 -4.594708 -6.722342 -7.454560 16.165977 9.132760 0.000000 0.000001 -0.000000 -5.610339 1.594576 -15.934206 -2.258376 1.771065 10.971937 6.324957 -3.308259 -1.100405 0.000001 0.000005 0.000000 
6.315700 87.732491 -2.841799 6.307298 -4.541715 3.028540 0.884314 -1.105548 12.330163 -1.650144 -3.867758 3.940979 -2.525637 9.720067 0.046136 -15.898339 -2.978535 2.503841 0.000003 -0.000001 0.000001 -2.146103 3.167739 8.365433 4.287756 15.288193 17.507218 -36.692562 -38.656330 -100.611425 -0.000001 0.000003 -0.000006 -1.475523 -4.584614 6.058565 -2.232975 -4.775772 -6.367426 -7.613318 -0.402666 -27.166099 0.000001 0.000001 -0.000003 -17.400884 -1.523875 -5.588016 20.076559 -4.820024 -6.589155 -7.503313 16.260111 9.227515 0.000000 0.000001 -0.000000 -5.479705 1.536750 -15.989963 -2.091856 1.793786 11.069525 6.296077 -2.955088 -1.245855 0.000002 0.000001 0.000000 
6.344856 87.707962 -2.870941 6.253076 -4.338957 2.988008 0.632814 -1.226751 12.255705 -1.286032 -3.503391 3.700713 -2.748374 9.833799 0.289469 -15.477185 -3.358966 2.736646 -0.000002 0.000001 -0.000000 -2.190694 2.811857 8.329038 3.790783 15.028588 17.356136 -36.136673 -38.367505 -100.363865 -0.000003 0.000000 -0.000000 -1.649688 -4.322650 6.008818 -2.604691 -4.556740 -6.121307 -7.350037 0.208757 -27.279349 0.000001 0.000000 -0.000003 -17.315226 -1.494548 -5.676363 20.076366 -4.854865 -6.380139 -7.575543 16.150285 9.095474 -0.000000 0.000001 -0.000000 -5.667088 1.639224 -15.915350 -1.620466 1.677087 11.045804 6.448472 -2.460890 -1.471688 0.000001 0.000001 0.000000 
6.369009 87.685768 -2.894563 6.230326 -4.245240 2.947119 0.831667 -1.128125 12.124399 -1.417998 -3.602214 3.705309 -2.873915 9.718480 0.393418 -15.628590 -3.410019 2.727095 -0.000001 -0.000001 0.000002 -2.039535 2.534360 8.315827 3.648963 14.902199 17.134213 -35.979179 -38.328856 -99.845024 -0.000003 -0.000003 -0.000001 -1.645099 -4.301774 6.052342 -2.592480 -4.274628 -6.039700 -7.483116 0.245390 -27.303034 0.000000 0.000002 -0.000004 -16.917789 -1.436686 -5.813513 20.029185 -4.837205 -5.964073 -7.761888 15.845957 9.086614 -0.000000 -0.000001 0.000001 -5.600767 1.553150 -15.954342 -1.510963 1.632488 11.135967 6.352736 -2.386159 -1.432786 0.000000 0.000001 0.000002 
